<?xml version="1.0" encoding="utf-8"?>
<!-- Generator: Adobe Illustrator 26.0.3, SVG Export Plug-In . SVG Version: 6.00 Build 0)  -->
<svg version="1.0" id="katman_1" xmlns="http://www.w3.org/2000/svg" xmlns:xlink="http://www.w3.org/1999/xlink" x="0px" y="0px"
	 viewBox="0 0 600 450" style="enable-background:new 0 0 600 450;" xml:space="preserve">
<style type="text/css">
	.st0{fill:#004833;}
	.st1{fill:#67B548;}
</style>
<g>
	<g>
		<path class="st0" d="M82.1,234.3c-0.2-2.5-1.5-4.5-3.5-5.6c-1.4-0.7-3-1.1-4.9-0.9c-0.5,0.1-1.1,0.1-1.9,0.2l1.3,15.1
			c0.3,0,1.5-0.1,2.1-0.3c1.8-0.3,3.4-1,4.5-1.9c0.8-0.7,1.6-1.6,2-2.7C82.1,237,82.2,235.8,82.1,234.3L82.1,234.3z M59.2,218.9
			c1.7-0.4,5.7-0.9,8.6-1.2c2.1-0.2,4.8-0.4,7.2-0.3c2.9,0.1,6.3,0.6,9.2,1.9c4.8,2.2,9,6.5,9.6,13.8c0.3,3.5-0.3,6.6-1.4,9.2
			c-1.4,3.1-3.5,5.5-6,7c-1.7,1.1-3.6,1.9-5.6,2.6c-2.3,0.7-4.7,1.2-7.1,1.4l1.4,15.9l-11.5,1L59.2,218.9z"/>
		<path class="st0" d="M501.4,196.5c-0.3-4.1-3-6.2-7-5.9c-1.1,0.1-1.7,0.2-2.3,0.3l1.2,13.2c0.5,0,1.1,0,1.7-0.1
			c1.7-0.1,3.2-0.8,4.3-1.7C500.3,201.4,501.6,199.4,501.4,196.5L501.4,196.5z M479.6,182.1c1.1-0.2,3-0.5,4.7-0.7
			c1.5-0.2,4.6-0.5,6.4-0.7c4.2-0.4,7.6-0.3,10.6,0.3c4.6,0.8,10.8,4,11.7,13.5c0.5,5.7-1.9,10-3.8,11.9c-1.1,1.1-2.3,2.2-3.1,2.7
			l0,0.2c0.5,0.6,16.7,20.9,16.7,20.9l-13.8,1.2c0,0-9.1-12.3-13.9-18.8l-1.2,0.1l1.8,19.8l-11.6,1L479.6,182.1z M443.7,185.1
			l27.5-2.4l0.9,10.3l-15.3,1.3l0.9,10.1l13.5-1.2l0.9,10.2l-13.5,1.2l0.9,10.6l15.5-1.4l0.9,10.3l-27.7,2.4L443.7,185.1z
			 M428.4,239.4l-1.6,0.1L409,210.2l-12.6,31.9l-1.6,0.1L374,191.2l12.6-1.1l9.4,23.7l10.5-25.2l1.7-0.2l14.8,22.7l4.9-24.8l11.5-1
			L428.4,239.4z M362.3,218.1c-0.7-8.5-7.3-14.6-15.7-13.9c-8.6,0.8-14.2,7.8-13.5,16.6c0.8,8.6,7.3,14.7,16.1,13.9
			C358.1,234,363.1,226.7,362.3,218.1L362.3,218.1z M374.8,216.8c1.3,15.2-9.1,27.8-24.7,29.2c-15.3,1.3-28.1-9.3-29.4-24.1
			c-1.3-14.9,9.5-27.5,25.2-28.9C361.4,191.6,373.5,201.9,374.8,216.8L374.8,216.8z M303.2,215c-0.2-2.5-1.6-4.6-3.6-5.6
			c-1.4-0.7-3-1.1-4.9-0.9c-0.5,0-1.2,0.1-2,0.2l1.3,15c0.3,0,1.6-0.1,2.1-0.2c1.8-0.3,3.4-0.9,4.5-1.8c0.8-0.7,1.6-1.6,2-2.8
			C303.2,217.7,303.4,216.5,303.2,215L303.2,215z M280.4,199.6c1.7-0.4,5.7-0.9,8.6-1.1c2.1-0.2,4.8-0.3,7.3-0.3
			c2.8,0.1,6.2,0.5,9.2,1.9c4.8,2.2,9,6.5,9.6,13.8c0.3,3.5-0.3,6.6-1.4,9.2c-1.4,3-3.5,5.4-6,7c-1.7,1.1-3.5,1.9-5.6,2.5
			c-2.3,0.7-4.7,1.2-7.1,1.4l1.4,15.9l-11.6,1L280.4,199.6z M262.4,230.9l1.9,21.9l-12.2,1.1l-1.9-21.2l-20-28.8l13.7-1.2l11.3,17.1
			l8.5-18.8l13-1.1L262.4,230.9z M220.8,229.8c-0.4-4.7-2.4-8.8-5.9-11.2c-2.4-1.6-5.6-2.4-9.6-2c-1.3,0.1-2.5,0.3-3.4,0.5l2.6,29.5
			c0,0.1,0.1,0.1,0.1,0.1c1,0,2,0,3-0.1c3-0.3,5.8-1.4,8.1-3.3C219.1,240.5,221.3,236,220.8,229.8L220.8,229.8z M233.4,228.5
			c0.9,9.8-2.7,17.9-9.7,23.5c-4.3,3.5-10.2,5.4-17.1,6c-3.3,0.3-6.5,0.5-8.6,0.6c-1.4,0.1-3.4,0.1-4.8,0.1l-4.4-51
			c4.7-0.8,11.6-1.7,14.1-1.9c7.9-0.7,13.7,0.4,18.3,2.6C229.5,212.7,232.8,220.9,233.4,228.5L233.4,228.5z M171.6,234.1
			c-0.4-4.7-2.4-8.8-5.9-11.1c-2.4-1.6-5.6-2.4-9.6-2c-1.2,0.1-2.5,0.3-3.3,0.5l2.6,29.4c0,0.1,0.1,0.1,0.1,0.1c1,0,2,0,3-0.1
			c3-0.3,5.8-1.4,8.1-3.3C170,244.8,172.2,240.3,171.6,234.1L171.6,234.1z M184.3,232.7c0.9,9.9-2.7,18-9.7,23.5
			c-4.3,3.4-10.2,5.4-17.1,6c-3.3,0.3-6.5,0.5-8.6,0.6c-1.4,0.1-3.4,0.1-4.8,0.1l-4.5-51c1.3-0.3,3-0.6,6-1c3.1-0.4,5.6-0.7,8.1-0.9
			c7.9-0.7,13.7,0.4,18.3,2.7C180.4,217,183.6,225.1,184.3,232.7L184.3,232.7z M117.7,248.2l-5.1-11.2l-3.3,11.9L117.7,248.2z
			 M106.5,259l-2.3,7.7l-12.6,1.1l18.6-54.5l1.7-0.2l27.4,50.5l-13.8,1.2l-3.5-7.1L106.5,259z"/>
	</g>
</g>
<path class="st1" d="M541,222.7c0,4-3.2,7.2-7.2,7.2c-4,0-7.3-3.3-7.3-7.2c0-4,3.3-7.2,7.3-7.2C537.9,215.4,541,218.7,541,222.7"/>
</svg>
